#!OML:ASF E:\Steps\Project 1\Capture day 1\Session 2\Subject.ASF
:FULLY-SPECIFIED
:DEGREES
299
root 8.97848 17.0233 17.7145 -159.898 1.61116 176.874
lowerback -15.9682 -2.30369 -4.16247
upperback -0.027109 -2.09829 -0.4618
thorax 9.09396 -1.12082 1.37473
lowerneck 0.922015 -0.671008 -0.978484
upperneck -4.76515 -0.759916 2.03427
head -1.62043 -0.370217 0.809753
rclavicle 1.01132e-014 -4.96962e-015
rhumerus -40.3203 -0.211787 -85.279
rradius 40.9722
rwrist -1.06572
rhand -6.82803 -46.3479
rfingers 7.12502
rthumb 19.0362 -75.4363
lclavicle 1.01132e-014 -4.96962e-015
lhumerus -32.1401 -9.75845 86.7404
lradius 32.1138
lwrist -0.466254
lhand -26.8191 -18.4516
lfingers 7.12502
lthumb -0.245404 11.528
rfemur -43.199 5.89125 10.8552
rtibia 14.1725
rfoot 16.7641 -11.4513
rtoes -29.3791
lfemur -44.5499 -5.31988 -19.6738
ltibia 16.4372
lfoot 25.7903 11.3657
ltoes -41.7275
300
root 8.98338 16.7736 17.5282 -160.579 1.63338 176.829
lowerback -16.601 -2.28299 -3.88928
upperback 0.770138 -2.07336 -0.770003
thorax 10.3094 -1.12379 0.852007
lowerneck 0.585271 -0.559929 -0.74396
upperneck -4.95474 -0.573828 2.26295
head -1.62542 -0.2772 0.837654
rclavicle 1.799e-014 1.47101e-014
rhumerus -39.6499 -0.173602 -85.846
rradius 41.3268
rwrist -1.3178
rhand -6.50624 -47.0234
rfingers 7.12502
rthumb 19.3457 -76.0811
lclavicle 1.799e-014 1.47101e-014
lhumerus -31.2225 -9.99661 85.9627
lradius 32.1174
lwrist -0.36207
lhand -26.8034 -18.2993
lfingers 7.12502
lthumb -0.23016 11.6803
rfemur -44.014 5.42245 11.2953
rtibia 17.67
rfoot 15.6052 -10.1261
rtoes -27.0967
lfemur -45.3435 -3.97307 -20.8735
ltibia 20.4081
lfoot 25.3687 9.06529
ltoes -45.4567
301
root 8.99139 16.5088 17.3483 -161.225 1.62007 176.867
lowerback -14.6373 -2.31043 -4.50395
upperback -0.157739 -2.15633 -0.245281
thorax 8.22576 -1.16242 1.82768
lowerneck 0.987196 -0.499134 -1.42968
upperneck -3.78624 -0.581466 2.1162
head -1.32347 -0.286146 0.902876
rclavicle -1.99157e-014 -2.28602e-015
rhumerus -41.4992 0.323429 -85.05
rradius 41.5659
rwrist -1.36129
rhand -6.81043 -46.101
rfingers 7.12502
rthumb 19.0531 -75.1878
lclavicle -1.99157e-014 -2.28602e-015
lhumerus -32.9791 -9.51162 86.8041
lradius 32.2216
lwrist -0.859442
lhand -27.0277 -18.8086
lfingers 7.12502
lthumb -0.446854 11.1707
rfemur -45.3074 4.54667 12.2682
rtibia 22.6915
rfoot 10.7792 -6.89594
rtoes -20.0748
lfemur -46.5102 -2.64884 -22.0097
ltibia 25.5836
lfoot 21.1805 3.40723
ltoes -41.453
302
root 9.0004 16.2315 17.1819 -161.847 1.61678 176.94
lowerback -14.5925 -2.24708 -4.21845
upperback 0.19028 -2.11565 -0.445944
thorax 8.55585 -1.14416 1.45357
lowerneck 1.08284 -0.458867 -1.3787
upperneck -3.8542 -0.516204 2.32605
head -1.3631 -0.257256 0.960208
rclavicle -8.94531e-016 1.17283e-014
rhumerus -40.9767 -0.0152253 -85.4522
rradius 41.3853
rwrist -0.948231
rhand -6.73678 -47.9947
rfingers 7.12502
rthumb 19.124 -77.0745
lclavicle -8.94531e-016 1.17283e-014
lhumerus -32.6779 -9.66064 86.2662
lradius 32.2338
lwrist -0.862909
lhand -27.2412 -19.2713
lfingers 7.12502
lthumb -0.65302 10.7075
rfemur -46.9585 3.62745 13.5714
rtibia 28.7861
rfoot -0.588778 -1.89713
rtoes -33.6802
lfemur -48.0592 -2.07442 -22.6066
ltibia 31.7896
lfoot 13.4786 1.3288
ltoes -43.4588
303
root 9.0093 15.9529 17.0213 -162.788 1.62631 176.94
lowerback -12.9263 -2.22902 -4.51362
upperback -0.208714 -2.15868 -0.285931
thorax 7.20443 -1.15616 1.83944
lowerneck 1.21981 -0.46865 -1.3576
upperneck -3.1557 -0.567061 2.08191
head -1.16505 -0.286192 0.876894
rclavicle -1.31695e-014 8.84592e-015
rhumerus -41.6879 0.0146589 -85.3355
rradius 41.1532
rwrist -0.874434
rhand -6.7642 -48.3817
rfingers 7.12502
rthumb 19.0976 -77.4641
lclavicle -1.31695e-014 8.84592e-015
lhumerus -33.537 -9.33472 86.4246
lradius 32.2448
lwrist -0.913279
lhand -26.9397 -18.681
lfingers 7.12502
lthumb -0.361848 11.2985
rfemur -48.2925 3.58525 14.1412
rtibia 36.2108
rfoot -8.94318 -1.25788
rtoes -34.7247
lfemur -49.5357 -2.04467 -23.0168
ltibia 38.9048
lfoot 7.58523 0.259931
ltoes -44.1025
304
root 9.01721 15.6766 16.8583 -164.046 1.54446 176.916
lowerback -12.1673 -2.21378 -4.52837
upperback 0.265437 -2.18623 -0.417771
thorax 7.28058 -1.18975 1.71405
lowerneck 1.7296 -0.393557 -1.42336
upperneck -3.406 -0.461377 2.31525
head -1.3345 -0.239305 0.964654
rclavicle -1.26725e-015 -1.59028e-015
rhumerus -41.2316 -0.473129 -85.5577
rradius 40.7134
rwrist -0.508536
rhand -6.6862 -48.2652
rfingers 7.12502
rthumb 19.1726 -77.3402
lclavicle -1.26725e-015 -1.59028e-015
lhumerus -32.9618 -9.22291 86.0057
lradius 31.9379
lwrist -0.699748
lhand -26.4672 -18.0524
lfingers 7.12502
lthumb 0.0944997 11.9274
rfemur -49.2477 4.03468 14.2523
rtibia 42.2339
rfoot -12.4451 -1.62573
rtoes -32.7752
lfemur -50.7068 -2.3656 -23.2314
ltibia 44.8455
lfoot 3.67817 0.221355
ltoes -48.7259
